<svg width="309" height="309" viewBox="0 0 309 309" fill="none" xmlns="http://www.w3.org/2000/svg">
<rect width="309" height="309" fill="#F1F0EC"/>
<path d="M244.052 178.833C240.096 178.833 236.874 175.684 236.947 171.729C236.874 167.847 240.096 164.697 244.052 164.697C247.787 164.697 251.156 167.847 251.156 171.729C251.156 175.684 247.787 178.833 244.052 178.833Z" fill="#6B8F5E"/>
<path d="M207.437 178.54C198.867 178.54 191.689 171.875 191.689 158.179C191.689 143.823 199.307 137.744 207.29 137.744C213.296 137.744 216.958 141.187 218.496 145.142H218.716V125H232.559V178.027H218.862V171.509H218.496C216.885 175.464 213.149 178.54 207.437 178.54ZM212.417 167.92C216.592 167.92 219.082 164.111 219.082 158.105C219.082 152.1 216.592 148.438 212.417 148.438C208.315 148.438 205.972 152.1 205.972 158.105C205.972 164.185 208.315 167.92 212.417 167.92Z" fill="#141410"/>
<path d="M164.924 155.542V178.027H151.081V138.257H164.191V145.728H164.631C166.389 140.747 170.93 137.744 176.789 137.744C185.212 137.744 190.705 143.896 190.632 152.686V178.027H176.789V155.542C176.862 151.44 174.665 149.023 170.93 149.023C167.268 149.023 164.924 151.44 164.924 155.542Z" fill="#141410"/>
<path d="M123.182 178.027V138.257H136.585V145.728H137.024C138.489 140.234 141.785 137.744 146.106 137.744C147.352 137.744 148.597 137.891 149.695 138.184V150.122C148.304 149.609 145.96 149.39 144.495 149.39C140.174 149.39 137.024 152.466 137.024 157.08V178.027H123.182Z" fill="#141410"/>
<path d="M121.374 138.257V148.291H114.416V165.283C114.416 167.188 115.368 167.92 117.272 167.993C118.298 168.066 120.349 167.92 121.887 167.773V178.101C120.568 178.32 118.444 178.613 115.295 178.613C105.627 178.613 100.5 174.951 100.573 166.675V148.291H95.4463V138.257H100.573V128.735H114.416V138.257H121.374Z" fill="#141410"/>
<path d="M81.9756 151.074C81.6826 148.584 79.3389 147.046 76.4092 147.046C73.7725 147.046 71.6484 148.071 71.7217 149.829C71.6484 151.074 72.6006 152.173 75.75 152.759L83.6602 154.224C91.79 155.688 95.6719 159.131 95.7451 164.99C95.6719 173.413 87.6885 178.76 76.7754 178.76C64.7637 178.76 57.8057 173.413 57 165.356H70.7695C71.209 167.92 73.4795 169.385 76.8486 169.385C79.6318 169.385 81.6094 168.359 81.6826 166.602C81.6094 164.99 80.2178 164.111 76.9951 163.525L70.0371 162.28C61.9805 160.815 57.9521 156.787 57.9521 150.635C57.9521 142.432 64.9102 137.744 76.1162 137.744C87.3955 137.744 94.3535 142.725 94.7197 151.074H81.9756Z" fill="#141410"/>
</svg>
