<svg width="24" height="24" viewBox="0 0 24 24" fill="none" xmlns="http://www.w3.org/2000/svg">
<path d="M12 0C18.6274 0 24 5.37258 24 12C24 18.6274 18.6274 24 12 24C5.37258 24 0 18.6274 0 12C0 5.37258 5.37258 0 12 0ZM16.4484 8.75156C15.9798 8.28303 15.2202 8.28303 14.7516 8.75156L10.8 12.7031L9.24844 11.1516C8.77983 10.683 8.02017 10.683 7.55156 11.1516C7.08296 11.6202 7.08301 12.3798 7.55156 12.8484L9.95156 15.2484C10.4202 15.7171 11.1798 15.7171 11.6484 15.2484L16.4484 10.4484C16.917 9.9798 16.917 9.22017 16.4484 8.75156Z" fill="#6B8F5E"/>
</svg>
