<svg width="20" height="20" viewBox="0 0 20 20" fill="none" xmlns="http://www.w3.org/2000/svg">
<path d="M10 0C15.5228 0 20 4.47715 20 10C20 15.5228 15.5228 20 10 20C4.47715 20 0 15.5228 0 10C0 4.47715 4.47715 0 10 0ZM10 12.5C9.17159 12.5 8.50003 13.1716 8.5 14V14.0098C8.5 14.8382 9.17157 15.5098 10 15.5098H10.0098C10.8382 15.5098 11.5098 14.8382 11.5098 14.0098V14C11.5097 13.1716 10.8382 12.5 10.0098 12.5H10ZM10 5C9.44774 5 9.00003 5.44774 9 6V10C9 10.5523 9.44772 11 10 11C10.5523 11 11 10.5523 11 10V6C11 5.44774 10.5523 5 10 5Z" fill="#7A2E42"/>
</svg>
