<svg width="18" height="14" viewBox="0 0 18 14" fill="none" xmlns="http://www.w3.org/2000/svg">
<path d="M9.75 2C10.1642 2 10.5 2.33579 10.5 2.75C10.5 3.16421 10.1642 3.5 9.75 3.5H0.75C0.335786 3.5 0 3.16421 0 2.75C0 2.33579 0.335786 2 0.75 2H9.75Z" fill="#A8A79F"/>
<path d="M16.75 2C17.1642 2 17.5 2.33579 17.5 2.75C17.5 3.16421 17.1642 3.5 16.75 3.5L13.75 3.5C13.3358 3.5 13 3.16421 13 2.75C13 2.33579 13.3358 2 13.75 2L16.75 2Z" fill="#A8A79F"/>
<path d="M16.75 10C17.1642 10 17.5 10.3358 17.5 10.75C17.5 11.1642 17.1642 11.5 16.75 11.5L7.75 11.5C7.33579 11.5 7 11.1642 7 10.75C7 10.3358 7.33579 10 7.75 10L16.75 10Z" fill="#A8A79F"/>
<path d="M3.75 10C4.16421 10 4.5 10.3358 4.5 10.75C4.5 11.1642 4.16421 11.5 3.75 11.5H0.75C0.335786 11.5 0 11.1642 0 10.75C0 10.3358 0.335786 10 0.75 10L3.75 10Z" fill="#A8A79F"/>
<path d="M7 10.75C7 10.0596 6.44036 9.5 5.75 9.5C5.05964 9.5 4.5 10.0596 4.5 10.75C4.5 11.4404 5.05964 12 5.75 12C6.44036 12 7 11.4404 7 10.75ZM8.5 10.75C8.5 12.2688 7.26878 13.5 5.75 13.5C4.23122 13.5 3 12.2688 3 10.75C3 9.23122 4.23122 8 5.75 8C7.26878 8 8.5 9.23122 8.5 10.75Z" fill="#A8A79F"/>
<path d="M13 2.75C13 2.05964 12.4404 1.5 11.75 1.5C11.0596 1.5 10.5 2.05964 10.5 2.75C10.5 3.44036 11.0596 4 11.75 4C12.4404 4 13 3.44036 13 2.75ZM14.5 2.75C14.5 4.26878 13.2688 5.5 11.75 5.5C10.2312 5.5 9 4.26878 9 2.75C9 1.23122 10.2312 0 11.75 0C13.2688 0 14.5 1.23122 14.5 2.75Z" fill="#A8A79F"/>
</svg>
