<svg width="20" height="20" viewBox="0 0 20 20" fill="none" xmlns="http://www.w3.org/2000/svg">
<path fill-rule="evenodd" clip-rule="evenodd" d="M10 0C15.5228 0 20 4.47715 20 10C20 15.5228 15.5228 20 10 20C4.47715 20 0 15.5228 0 10C0 4.47715 4.47715 0 10 0ZM9.70703 6.29297C9.31651 5.90244 8.68349 5.90244 8.29297 6.29297C7.90244 6.68349 7.90244 7.31651 8.29297 7.70703L10.5859 10L8.29297 12.293C7.90244 12.6835 7.90244 13.3165 8.29297 13.707C8.68349 14.0976 9.31651 14.0976 9.70703 13.707L12.707 10.707C13.0976 10.3165 13.0976 9.68349 12.707 9.29297L9.70703 6.29297Z" fill="#F9F8F6"/>
</svg>
