<svg width="16" height="16" viewBox="0 0 16 16" fill="none" xmlns="http://www.w3.org/2000/svg">
<path d="M12.4879 7.21955C12.4879 4.30993 10.1292 1.95123 7.21955 1.95123C4.30993 1.95123 1.95123 4.30993 1.95123 7.21955C1.95123 10.1292 4.30993 12.4879 7.21955 12.4879C8.67462 12.4879 9.99073 11.8996 10.9452 10.9452C11.8996 9.99073 12.4879 8.67462 12.4879 7.21955ZM14.4391 7.21955C14.4391 8.86095 13.8891 10.3744 12.9665 11.5869L15.7142 14.3347C16.0952 14.7157 16.0952 15.3332 15.7142 15.7142C15.3332 16.0952 14.7157 16.0952 14.3347 15.7142L11.5869 12.9665C10.3744 13.8891 8.86095 14.4391 7.21955 14.4391C3.2323 14.4391 0 11.2068 0 7.21955C0 3.2323 3.2323 0 7.21955 0C11.2068 0 14.4391 3.2323 14.4391 7.21955Z" fill="#6B8F5E"/>
</svg>
