<svg width="195" height="54" viewBox="0 0 195 54" fill="none" xmlns="http://www.w3.org/2000/svg">
<path d="M24.9756 26.0742C24.6826 23.584 22.3389 22.0459 19.4092 22.0459C16.7725 22.0459 14.6484 23.0713 14.7217 24.8291C14.6484 26.0742 15.6006 27.1729 18.75 27.7588L26.6602 29.2236C34.79 30.6885 38.6719 34.1309 38.7451 39.9902C38.6719 48.4131 30.6885 53.7598 19.7754 53.7598C7.76367 53.7598 0.805664 48.4131 0 40.3564H13.7695C14.209 42.9199 16.4795 44.3848 19.8486 44.3848C22.6318 44.3848 24.6094 43.3594 24.6826 41.6016C24.6094 39.9902 23.2178 39.1113 19.9951 38.5254L13.0371 37.2803C4.98047 35.8154 0.952148 31.7871 0.952148 25.6348C0.952148 17.4316 7.91016 12.7441 19.1162 12.7441C30.3955 12.7441 37.3535 17.7246 37.7197 26.0742H24.9756ZM64.374 13.2568V23.291H57.416V40.2832C57.416 42.1875 58.3682 42.9199 60.2725 42.9932C61.2979 43.0664 63.3486 42.9199 64.8867 42.7734V53.1006C63.5684 53.3203 61.4443 53.6133 58.2949 53.6133C48.627 53.6133 43.5 49.9512 43.5732 41.6748V23.291H38.4463V13.2568H43.5732V3.73535H57.416V13.2568H64.374ZM66.1816 53.0273V13.2568H79.585V20.7275H80.0244C81.4893 15.2344 84.7852 12.7441 89.1064 12.7441C90.3516 12.7441 91.5967 12.8906 92.6953 13.1836V25.1221C91.3037 24.6094 88.96 24.3896 87.4951 24.3896C83.1738 24.3896 80.0244 27.4658 80.0244 32.0801V53.0273H66.1816ZM107.924 30.542V53.0273H94.0811V13.2568H107.191V20.7275H107.631C109.389 15.7471 113.93 12.7441 119.789 12.7441C128.212 12.7441 133.705 18.8965 133.632 27.6855V53.0273H119.789V30.542C119.862 26.4404 117.665 24.0234 113.93 24.0234C110.268 24.0234 107.924 26.4404 107.924 30.542ZM150.437 53.54C141.867 53.54 134.689 46.875 134.689 33.1787C134.689 18.8232 142.307 12.7441 150.29 12.7441C156.296 12.7441 159.958 16.1865 161.496 20.1416H161.716V0H175.559V53.0273H161.862V46.5088H161.496C159.885 50.4639 156.149 53.54 150.437 53.54ZM155.417 42.9199C159.592 42.9199 162.082 39.1113 162.082 33.1055C162.082 27.0996 159.592 23.4375 155.417 23.4375C151.315 23.4375 148.972 27.0996 148.972 33.1055C148.972 39.1846 151.315 42.9199 155.417 42.9199Z" fill="#141410"/>
<path d="M187.052 53.833C183.097 53.833 179.874 50.6836 179.947 46.7285C179.874 42.8467 183.097 39.6973 187.052 39.6973C190.787 39.6973 194.156 42.8467 194.156 46.7285C194.156 50.6836 190.787 53.833 187.052 53.833Z" fill="#6B8F5E"/>
</svg>
