<svg width="32" height="32" viewBox="0 0 32 32" fill="none" xmlns="http://www.w3.org/2000/svg">
<path fill-rule="evenodd" clip-rule="evenodd" d="M13.3787 6.24977C14.8606 5.91163 16.38 5.92158 17.823 6.25074C18.2778 6.35463 18.6004 6.75985 18.6004 7.22633L18.6013 9.07301C18.6015 9.84258 19.4348 10.3238 20.1013 9.93922L21.7029 9.01442L21.8582 8.94215C22.2313 8.8053 22.6577 8.90148 22.9353 9.20094C23.4335 9.73923 23.8804 10.3416 24.2615 11.0017C24.6424 11.6616 24.94 12.3483 25.157 13.0486C25.2949 13.4943 25.1067 13.9771 24.7029 14.2107L23.1013 15.1355C22.435 15.5205 22.4349 16.4821 23.1013 16.867L24.7 17.7908C25.1036 18.0241 25.2932 18.5054 25.156 18.9509C24.7196 20.3654 23.9693 21.688 22.9353 22.8025C22.6181 23.1442 22.1068 23.2209 21.7029 22.988L20.1013 22.0632C19.4347 21.6784 18.6015 22.1598 18.6013 22.9295L18.6004 24.7791C18.6001 25.2452 18.2784 25.6497 17.824 25.7537C16.342 26.0919 14.8218 26.0799 13.3787 25.7507C12.9241 25.6469 12.6015 25.2425 12.6013 24.7761L12.6004 22.9295C12.6002 22.1598 11.7669 21.6794 11.1004 22.0642L9.49978 22.988C9.09555 23.2212 8.58356 23.1428 8.26638 22.8005C7.76846 22.2625 7.32218 21.6615 6.94118 21.0017C6.56005 20.3416 6.26179 19.6535 6.0447 18.9529C5.90692 18.5071 6.09575 18.0252 6.49978 17.7918L8.10036 16.8679C8.76687 16.4831 8.76675 15.5205 8.10036 15.1355L6.50173 14.2117C6.09784 13.9785 5.9094 13.4972 6.04665 13.0515C6.4831 11.637 7.23335 10.3154 8.26736 9.20094L8.39431 9.08473C8.71018 8.84427 9.14541 8.8107 9.4988 9.01442L11.1013 9.93922C11.7678 10.3234 12.6011 9.8424 12.6013 9.07301V7.2234L12.615 7.0525C12.683 6.6611 12.9807 6.34062 13.3787 6.24977ZM15.6013 13.0017C13.9445 13.0017 12.6013 14.3449 12.6013 16.0017C12.6016 17.6583 13.9446 19.0017 15.6013 19.0017C17.2579 19.0016 18.6011 17.6583 18.6013 16.0017C18.6013 14.3449 17.2581 13.0019 15.6013 13.0017Z" fill="#A8A79F"/>
</svg>
