<svg width="7" height="15" viewBox="0 0 7 15" fill="none" xmlns="http://www.w3.org/2000/svg">
<path d="M1.5039 0C2.33017 0 3 0.669829 3 1.4961V1.5039C3 2.33017 2.33017 3 1.5039 3H1.4961C0.669829 3 0 2.33017 0 1.5039V1.4961C0 0.669829 0.669829 0 1.4961 0H1.5039Z" fill="#E4E3DC"/>
<path d="M1.5039 6C2.33017 6 3 6.66983 3 7.4961V7.5039C3 8.33017 2.33017 9 1.5039 9H1.4961C0.669829 9 0 8.33017 0 7.5039V7.4961C0 6.66983 0.669829 6 1.4961 6H1.5039Z" fill="#E4E3DC"/>
<path d="M1.5039 12C2.33017 12 3 12.6698 3 13.4961V13.5039C3 14.3302 2.33017 15 1.5039 15H1.4961C0.669829 15 0 14.3302 0 13.5039V13.4961C0 12.6698 0.669829 12 1.4961 12H1.5039Z" fill="#E4E3DC"/>
</svg>
