<svg width="10" height="10" viewBox="0 0 10 10" fill="none" xmlns="http://www.w3.org/2000/svg">
<path d="M5.40541 7.43902V4.5122C5.40541 4.17544 5.70792 3.90244 6.08108 3.90244C6.45425 3.90244 6.75676 4.17544 6.75676 4.5122V7.43902C6.75676 7.77578 6.45425 8.04878 6.08108 8.04878C5.70792 8.04878 5.40541 7.77578 5.40541 7.43902Z" fill="#C8C7BF"/>
<path d="M3.24324 7.43902V4.5122C3.24324 4.17544 3.54575 3.90244 3.91892 3.90244C4.29208 3.90244 4.59459 4.17544 4.59459 4.5122V7.43902C4.59459 7.77578 4.29208 8.04878 3.91892 8.04878C3.54575 8.04878 3.24324 7.77578 3.24324 7.43902Z" fill="#C8C7BF"/>
<path d="M1.08108 8.41463V2.56098C1.08108 2.22422 1.38359 1.95122 1.75676 1.95122C2.12992 1.95122 2.43243 2.22422 2.43243 2.56098V8.41463C2.43243 8.61669 2.61394 8.78049 2.83784 8.78049H7.16216C7.38606 8.78049 7.56757 8.61669 7.56757 8.41463V2.56098C7.56757 2.22422 7.87008 1.95122 8.24324 1.95122C8.61641 1.95122 8.91892 2.22422 8.91892 2.56098V8.41463C8.91892 9.29021 8.13239 10 7.16216 10H2.83784C1.86761 10 1.08108 9.29021 1.08108 8.41463Z" fill="#C8C7BF"/>
<path d="M9.32432 1.95122C9.69749 1.95122 10 2.22422 10 2.56098C10 2.89773 9.69749 3.17073 9.32432 3.17073H0.675676C0.30251 3.17073 0 2.89773 0 2.56098C0 2.22422 0.30251 1.95122 0.675676 1.95122H9.32432Z" fill="#C8C7BF"/>
<path d="M6.62162 0C6.87755 0 7.11158 0.130696 7.22603 0.337271L8.30712 2.28849C8.47384 2.58966 8.33834 2.95585 8.00465 3.10642C7.67092 3.25688 7.26514 3.1346 7.09829 2.83346L6.20407 1.21951H3.79592L2.90171 2.83346C2.73486 3.1346 2.32908 3.25688 1.99535 3.10642C1.66166 2.95585 1.52616 2.58966 1.69288 2.28849L2.77397 0.337271C2.88842 0.130696 3.12245 0 3.37838 0H6.62162Z" fill="#C8C7BF"/>
</svg>
