<svg width="25" height="25" viewBox="0 0 25 25" fill="none" xmlns="http://www.w3.org/2000/svg">
<path d="M12.2207 0C18.9697 0.000112877 24.4412 5.47158 24.4414 12.2207C24.4414 18.97 18.9698 24.4413 12.2207 24.4414C5.47173 24.4411 0 18.9699 0 12.2207C0.000195134 5.47169 5.47185 0.00029688 12.2207 0ZM12.2217 15.709C11.3933 15.709 10.7217 16.3806 10.7217 17.209V17.2217C10.7222 18.0496 11.3936 18.7217 12.2217 18.7217H12.2344C13.0621 18.7212 13.7338 18.0494 13.7344 17.2217V17.209C13.7344 16.3808 13.0624 15.7094 12.2344 15.709H12.2217ZM12.2217 6.23438C11.6695 6.23437 11.2218 6.68221 11.2217 7.23438V12.2217C11.2219 12.7737 11.6696 13.2217 12.2217 13.2217C12.7735 13.2214 13.2214 12.7735 13.2217 12.2217V7.23438C13.2215 6.68241 12.7736 6.2347 12.2217 6.23438Z" fill="#E4E3DC"/>
</svg>
