<svg width="7" height="12" viewBox="0 0 7 12" fill="none" xmlns="http://www.w3.org/2000/svg">
<path d="M5.29289 0.292893C5.68342 -0.0976311 6.31643 -0.0976311 6.70696 0.292893C7.09748 0.683417 7.09748 1.31643 6.70696 1.70696L1.70696 6.70696C1.31643 7.09748 0.683417 7.09748 0.292893 6.70696C-0.0976311 6.31643 -0.0976311 5.68342 0.292893 5.29289L5.29289 0.292893Z" fill="#2C2B27"/>
<path d="M0.292893 5.29289C0.683417 4.90237 1.31643 4.90237 1.70696 5.29289L6.70696 10.2929C7.09748 10.6834 7.09748 11.3164 6.70696 11.707C6.31643 12.0975 5.68342 12.0975 5.29289 11.707L0.292893 6.70696C-0.0976311 6.31643 -0.0976311 5.68342 0.292893 5.29289Z" fill="#2C2B27"/>
</svg>
