<svg width="20" height="20" viewBox="0 0 20 20" fill="none" xmlns="http://www.w3.org/2000/svg">
<circle cx="10" cy="10" r="10" fill="#6B8F5E"/>
<path d="M13.2432 8.2749H8.67867V13.5188C8.67867 13.7209 8.84 13.8847 9.03903 13.8847H12.8829C13.0819 13.8847 13.2432 13.7209 13.2432 13.5188V8.2749ZM5.55554 12.0554V5.71393C5.55554 5.37717 5.82444 5.10417 6.15614 5.10417H11.9219C12.2536 5.10417 12.5225 5.37717 12.5225 5.71393C12.5225 6.05069 12.2536 6.32368 11.9219 6.32368H6.75674V12.0554C6.75674 12.3922 6.48785 12.6651 6.15614 12.6651C5.82444 12.6651 5.55554 12.3922 5.55554 12.0554ZM14.4444 13.5188C14.4444 14.3944 13.7453 15.1042 12.8829 15.1042H9.03903C8.1766 15.1042 7.47746 14.3944 7.47746 13.5188V7.66515C7.47746 7.32839 7.74636 7.05539 8.07806 7.05539H13.8438C14.1755 7.05539 14.4444 7.32839 14.4444 7.66515V13.5188Z" fill="#EAF2E5"/>
</svg>
