<svg width="10" height="10" viewBox="0 0 10 10" fill="none" xmlns="http://www.w3.org/2000/svg">
<path d="M6.64214 0.509733C7.29299 -0.16991 8.34805 -0.169912 8.9989 0.509733L9.08704 0.601784C9.73781 1.28152 9.73781 2.38339 9.08704 3.06312L3.14557 9.26824C3.06341 9.35404 2.9603 9.41507 2.84759 9.4445L0.79632 9.98007C0.577945 10.037 0.34701 9.97004 0.187849 9.80381C0.0286895 9.63759 -0.035426 9.39641 0.0190803 9.16834L0.531898 7.02605L0.558441 6.93975C0.590571 6.85576 0.639005 6.77925 0.700667 6.71485L6.64214 0.509733ZM8.09246 1.4564C7.94228 1.29964 7.69877 1.29964 7.54859 1.4564L1.73281 7.53024L1.52198 8.40996L2.36482 8.19029L8.1806 2.11645C8.3307 1.95961 8.3307 1.7053 8.1806 1.54845L8.09246 1.4564Z" fill="#C8C7BF"/>
<path d="M5.82885 1.35912C6.07918 1.09768 6.48496 1.09768 6.73529 1.35912L8.27375 2.96584C8.52408 3.22728 8.52408 3.65106 8.27375 3.91251C8.02341 4.17395 7.61764 4.17395 7.3673 3.91251L5.82885 2.30579C5.57851 2.04434 5.57851 1.62056 5.82885 1.35912Z" fill="#C8C7BF"/>
<path d="M9.35898 8.66101C9.71301 8.66101 10 8.96074 10 9.33048C10 9.70022 9.71301 9.99995 9.35898 9.99995H5.25643C4.90241 9.99995 4.61541 9.70022 4.61541 9.33048C4.61541 8.96074 4.90241 8.66101 5.25643 8.66101H9.35898Z" fill="#C8C7BF"/>
</svg>
