<svg width="12" height="12" viewBox="0 0 12 12" fill="none" xmlns="http://www.w3.org/2000/svg">
<g opacity="0.8">
<path d="M0 6C0 4.11485 0.870414 2.43243 2.22828 1.33365C2.54242 1.07953 3.00306 1.12815 3.25724 1.44226C3.51137 1.7564 3.46274 2.21705 3.14863 2.47123C2.11938 3.3041 1.46341 4.57519 1.46341 6C1.46341 8.50549 3.49451 10.5366 6 10.5366C8.50549 10.5366 10.5366 8.50549 10.5366 6C10.5366 3.49451 8.50549 1.46341 6 1.46341C5.59589 1.46341 5.26829 1.13582 5.26829 0.731707C5.26829 0.327596 5.59589 0 6 0C9.31371 0 12 2.68629 12 6C12 9.31371 9.31371 12 6 12C2.68629 12 0 9.31371 0 6Z" fill="#A8A79F"/>
<path d="M2.46154 4.23077V2.53846H0.769231C0.344396 2.53846 0 2.19407 0 1.76923C0 1.3444 0.344396 1 0.769231 1H3.23077C3.6556 1 4 1.3444 4 1.76923V4.23077C4 4.6556 3.6556 5 3.23077 5C2.80593 5 2.46154 4.6556 2.46154 4.23077Z" fill="#A8A79F"/>
</g>
</svg>
